<svg width="327" height="207" viewBox="0 0 327 207" fill="none" xmlns="http://www.w3.org/2000/svg">
<path fill-rule="evenodd" clip-rule="evenodd" d="M160.672 35C161.86 36.184 163.027 36.184 164.172 35C164.685 37.021 165.852 38.521 167.672 39.5C165.769 42.864 163.769 46.198 161.672 49.5C163.188 51.397 163.855 53.564 163.672 56C160.368 70.021 161.535 83.688 167.172 97C180.039 119.683 180.873 142.683 169.672 166C168.052 169.372 165.672 172 163.172 176.5C155.172 185 156.672 184 150.172 189.5C149.438 188.292 155.605 181.459 155.672 180C153.582 180.05 152.249 179.05 151.672 177C155.652 172.644 154.986 171.977 149.672 175C157.606 166.131 163.106 155.797 165.172 144C165.434 142.5 165.672 141.5 165.672 140C165.672 136 165.672 132 165.672 128C165.172 124.5 164.672 123 163.672 120C158.633 108.721 154.466 97.054 151.172 85C149.016 75.905 149.182 66.905 151.672 58C152.172 55.5 152.672 54 153.672 51C154.47 44.922 156.803 39.588 160.672 35Z" fill="white"/>
<path fill-rule="evenodd" clip-rule="evenodd" d="M183.672 11C184.039 13.354 184.539 16.021 185.172 19C185.988 20.323 187.155 20.989 188.672 21C176.645 30.065 168.311 41.731 163.672 56C163.855 53.564 163.188 51.397 161.672 49.5C163.769 46.198 165.769 42.864 167.672 39.5C165.852 38.521 164.685 37.021 164.172 35C163.027 36.184 161.86 36.184 160.672 35C161.172 34 161.672 33.5 162.172 32.5C162.672 31.5 162.672 31.5 163.672 30C167.616 24.719 174.172 17 176.672 15C180.172 12.5 181.172 12 183.672 11Z" fill="white"/>
<path fill-rule="evenodd" clip-rule="evenodd" d="M156.172 169.5C156.539 171.854 157.039 174.521 157.672 177.5C158.488 178.823 166.173 171.36 165.172 172.5C150.672 189 160.172 180.5 139.672 197C137.769 198.532 138.489 196.897 136.973 195C139.07 191.698 136.769 200.864 138.672 197.5C136.852 196.521 137.185 195.521 136.672 193.5C135.527 194.684 134.36 194.684 133.172 193.5C133.672 192.5 134.172 192 134.672 191C135.172 190 135.172 190 136.172 188.5C140.116 183.219 132.272 188.5 144.172 180C147.672 177.5 153.672 170.5 156.172 169.5Z" fill="white"/>
<path opacity="0.061" fill-rule="evenodd" clip-rule="evenodd" d="M191.672 92C192.172 93 192.672 93.5 193.672 95C192.841 93.8066 192.619 93.5 191.672 92Z" fill="white"/>
<path opacity="0.999" fill-rule="evenodd" clip-rule="evenodd" d="M214.672 1.52588e-05C240.005 1.52588e-05 265.339 1.52588e-05 290.672 1.52588e-05C290.7 15.36 290.7 31.027 290.672 47C266.003 46.833 241.336 47 216.672 47.5C207.944 50.063 201.944 55.563 198.672 64C198.672 64 198.672 64.5 198.172 65C198.172 65.5 198.172 65.0001 197.672 67.0001C197.172 71 197.102 71.004 197.672 75C200.005 87.333 207.339 94.667 219.672 97C232.828 97.996 246.162 98.329 259.672 98C274.151 100.142 283.817 108.142 288.672 122C289.503 128.631 290.922 135.5 289.672 142C287.172 155 278.539 164.473 265.672 169.5C243.058 170.958 219.391 171.458 196.672 171C196.672 179 196.672 187.5 196.672 196C217.845 196.331 238.845 195.997 259.672 195C270.557 193.549 280.557 189.883 289.672 184C292.719 184.645 294.885 183.645 296.172 181C297.025 182.625 298.025 182.958 299.172 182C300.128 183.079 300.961 184.245 301.672 185.5C301.001 186.486 301.001 187.653 301.672 189C290.533 198.731 277.533 204.398 262.672 206C237.339 206 212.005 206 186.672 206C186.672 190.667 186.672 175.333 186.672 160C210.835 159.168 235.169 158.668 259.672 158.5C270.172 156.5 270.891 153.921 274.672 149C275.672 147.698 275.672 147.5 276.672 146C279.775 136.671 279.108 127.671 274.672 119C272.672 116.5 271.672 116 271.672 116C271.672 116 268.747 113.411 268.172 113C266.072 111.5 265.172 110.5 262.672 110C247.363 109.231 232.03 108.731 216.672 108.5C207.156 106.858 199.49 102.358 193.672 95C192.672 93.5 192.172 93 191.672 92C181.955 74.115 184.288 57.948 198.672 43.5C203.39 39.64 208.723 37.14 214.672 36C236.672 36 257.172 36 279.672 36C279.672 27.667 279.672 18.333 279.672 10C257.832 9.66902 236.166 10.003 214.672 11C205.615 13.107 196.948 16.44 188.672 21C187.155 20.989 185.672 20.5 185.172 19C184.539 16.021 184.039 13.354 183.672 11C188.408 7.29802 193.837 4.44515 199.672 2.50002C201.172 1.99996 201.343 1.83217 202.672 1.49996C206.672 0.500046 210.172 1.52588e-05 214.672 1.52588e-05Z" fill="white"/>
<path fill-rule="evenodd" clip-rule="evenodd" d="M301.672 189C301.001 187.653 301.001 186.486 301.672 185.5C300.961 184.245 300.128 183.079 299.172 182C298.025 182.958 297.025 182.625 296.172 181C294.885 183.645 292.719 184.645 289.672 184C314.778 162.768 321.111 136.768 308.672 106C313.672 103 313.672 103 317.672 100C331.956 129.1 329.123 156.433 309.172 182C306.802 184.539 304.302 186.872 301.672 189Z" fill="white"/>
<path opacity="0.999" fill-rule="evenodd" clip-rule="evenodd" d="M63.1719 0.5C88.5049 0.5 113.839 0.5 139.172 0.5C139.2 15.86 139.2 31.527 139.172 47.5C114.503 47.333 89.8359 47.5 65.1719 48C56.4439 50.563 50.4439 56.063 47.1719 64.5C47.1719 64.5 47.1719 65 46.6719 65.5C46.6719 66 46.6719 65.5001 46.1719 67.5001C45.6719 71.5 45.6019 71.504 46.1719 75.5C48.5049 87.833 55.8389 95.167 68.1719 97.5C81.3279 98.496 94.6619 98.829 108.172 98.5C122.651 100.642 132.317 108.642 137.172 122.5C138.003 129.131 139.422 136 138.172 142.5C135.672 155.5 127.039 164.973 114.172 170C91.5579 171.458 67.8909 171.958 45.1719 171.5C45.1719 179.5 45.1719 188 45.1719 196.5C66.3449 196.831 87.3449 196.497 108.172 195.5C119.057 194.049 129.057 190.383 138.172 184.5C141.219 185.145 143.385 184.145 144.672 181.5C145.525 183.125 146.525 183.458 147.672 182.5C148.628 183.579 154.961 182.245 155.672 183.5C155.001 184.486 154.172 185.5 150.172 189.5C139.033 199.231 126.033 204.898 111.172 206.5C85.8389 206.5 60.5049 206.5 35.1719 206.5C35.1719 191.167 35.1719 175.833 35.1719 160.5C59.3349 159.668 83.6689 159.168 108.172 159C118.672 157 119.391 154.421 123.172 149.5C124.172 148.198 124.172 148 125.172 146.5C128.275 137.171 127.608 128.171 123.172 119.5C121.172 117 120.172 116.5 120.172 116.5C120.172 116.5 117.247 113.911 116.672 113.5C114.572 112 113.672 111 111.172 110.5C95.8629 109.731 80.5299 109.231 65.1719 109C55.6559 107.358 47.9899 102.858 42.1719 95.5C41.1719 94 40.6719 93.5 40.1719 92.5C30.4549 74.615 32.7879 58.448 47.1719 44C51.8899 40.14 57.2229 37.64 63.1719 36.5C85.1719 36.5 105.672 36.5 128.172 36.5C128.172 28.167 128.172 18.833 128.172 10.5C106.332 10.169 84.6659 10.503 63.1719 11.5C54.1149 13.607 45.4479 16.94 37.1719 21.5C35.6549 21.489 34.1719 21 33.6719 19.5C33.0389 16.521 32.5389 13.854 32.1719 11.5C36.9079 7.798 42.3371 4.94514 48.1719 3C49.6719 2.49995 49.8429 2.33216 51.1719 1.99995C55.1719 1.00003 58.6719 0.5 63.1719 0.5Z" fill="white"/>
<path fill-rule="evenodd" clip-rule="evenodd" d="M32.6719 11C38.6719 9 35.1388 10.3836 34.4678 11.3696C35.1788 12.6246 35.0118 11.7906 35.9678 12.8696C37.1148 11.9116 33.6148 12.7446 34.4678 14.3696C35.0278 13.8696 36.1719 19 39.1719 20C14.0659 41.232 4.76071 64.1016 17.1997 94.8696C12.1997 97.8696 12.1997 97.8696 8.19971 100.87C-6.08429 71.7696 -0.828125 42.5 17.1719 24C28.8313 12.0167 32.6719 11 32.6719 11Z" fill="white"/>
</svg>
